<svg width="24" height="25" viewBox="0 0 24 25" fill="none" xmlns="http://www.w3.org/2000/svg">
<g id="menu">
<path id="Vector" fill-rule="evenodd" clip-rule="evenodd" d="M12.5217 19.9565C12.5217 20.2333 12.6866 20.4987 12.9802 20.6944C13.2737 20.8901 13.6718 21 14.087 21H22.4348C22.8499 21 23.248 20.8901 23.5416 20.6944C23.8351 20.4987 24 20.2333 24 19.9565C24 19.6798 23.8351 19.4144 23.5416 19.2187C23.248 19.023 22.8499 18.913 22.4348 18.913H14.087C13.6718 18.913 13.2737 19.023 12.9802 19.2187C12.6866 19.4144 12.5217 19.6798 12.5217 19.9565ZM6.26087 13C6.26087 13.2767 6.42578 13.5422 6.71931 13.7379C7.01285 13.9335 7.41097 14.0435 7.82609 14.0435H22.4348C22.8499 14.0435 23.248 13.9335 23.5416 13.7379C23.8351 13.5422 24 13.2767 24 13C24 12.7233 23.8351 12.4578 23.5416 12.2621C23.248 12.0665 22.8499 11.9565 22.4348 11.9565H7.82609C7.41097 11.9565 7.01285 12.0665 6.71931 12.2621C6.42578 12.4578 6.26087 12.7233 6.26087 13ZM0 6.04348C0 6.32023 0.164907 6.58564 0.458442 6.78133C0.751978 6.97702 1.1501 7.08696 1.56522 7.08696H22.4348C22.8499 7.08696 23.248 6.97702 23.5416 6.78133C23.8351 6.58564 24 6.32023 24 6.04348C24 5.76673 23.8351 5.50132 23.5416 5.30563C23.248 5.10994 22.8499 5 22.4348 5H1.56522C1.1501 5 0.751978 5.10994 0.458442 5.30563C0.164907 5.50132 0 5.76673 0 6.04348Z" fill="#050607"/>
</g>
</svg>
