<svg width="24" height="25" viewBox="0 0 24 25" fill="none" xmlns="http://www.w3.org/2000/svg">
<g id="Iconsax/Linear/profilecircle">
<path id="Vector" d="M12.12 13.28C12.0403 13.27 11.9597 13.27 11.88 13.28C11.032 13.2515 10.2282 12.8944 9.63856 12.2842C9.04891 11.674 8.71953 10.8585 8.72001 10.01C8.72001 8.2 10.18 6.73 12 6.73C12.8594 6.72851 13.6851 7.06481 14.2988 7.6664C14.9126 8.268 15.2654 9.08669 15.2811 9.94599C15.2969 10.8053 14.9743 11.6364 14.383 12.26C13.7917 12.8837 12.9789 13.25 12.12 13.28ZM18.74 19.88C16.9023 21.5691 14.496 22.5044 12 22.5C9.40001 22.5 7.04001 21.51 5.26001 19.88C5.36001 18.94 5.96001 18.02 7.03001 17.3C9.77001 15.48 14.25 15.48 16.97 17.3C18.04 18.02 18.64 18.94 18.74 19.88Z" stroke="#050607" stroke-width="1.5" stroke-linecap="round" stroke-linejoin="round"/>
<path id="Vector_2" d="M12 22.5C17.523 22.5 22 18.023 22 12.5C22 6.977 17.523 2.5 12 2.5C6.477 2.5 2 6.977 2 12.5C2 18.023 6.477 22.5 12 22.5Z" stroke="#050607" stroke-width="1.5" stroke-linecap="round" stroke-linejoin="round"/>
</g>
</svg>
