<svg width="25" height="37" viewBox="0 0 25 37" fill="none" xmlns="http://www.w3.org/2000/svg">
<path d="M23.9097 22.2887L23.3518 22.1729C22.2049 21.9414 21.3164 21.0259 21.089 19.8683L20.9754 19.3001C20.8204 18.5529 20.1075 18.0689 19.3636 18.2162C18.8263 18.332 18.413 18.7529 18.2994 19.3001L18.1857 19.8683C17.9584 21.0364 17.0595 21.9414 15.923 22.1729L15.365 22.2887C14.6314 22.4465 14.1562 23.1726 14.3008 23.9303C14.4145 24.4775 14.8278 24.8984 15.365 25.0142L15.923 25.1299C17.0698 25.3614 17.9584 26.2769 18.1857 27.4345L18.2994 28.0027C18.4543 28.7499 19.1673 29.2339 19.9112 29.0866C20.4485 28.9709 20.8617 28.5499 20.9754 28.0027L21.089 27.4345C21.3164 26.2664 22.2153 25.3614 23.3518 25.1299L23.9097 25.0142C24.6433 24.8563 25.1186 24.1302 24.9739 23.3725C24.8603 22.8253 24.4367 22.4044 23.9097 22.2887ZM23.6514 23.6672L23.0935 23.7829C21.4093 24.1197 20.0868 25.4667 19.7562 27.1819L19.6425 27.7502L19.5289 27.1819C19.1983 25.4667 17.8757 24.1197 16.1916 23.7829L15.6337 23.6672L16.1916 23.5514C17.8757 23.2147 19.1983 21.8677 19.5289 20.1525L19.6425 19.5842L19.7562 20.1525C20.0868 21.8677 21.4093 23.2147 23.0935 23.5514L23.6514 23.6672Z" fill="#21A068"/>
<path d="M8.53583 28.7605C8.16388 28.7605 7.86426 29.0656 7.86426 29.4445V31.3071C7.86426 31.6859 8.16388 31.9911 8.53583 31.9911C8.90778 31.9911 9.20741 31.6859 9.20741 31.3071V29.4445C9.20741 29.0656 8.90778 28.7605 8.53583 28.7605Z" fill="#21A068"/>
<path d="M8.53583 33.7694C8.16388 33.7694 7.86426 34.0746 7.86426 34.4534V36.316C7.86426 36.6949 8.16388 37 8.53583 37C8.90778 37 9.20741 36.6949 9.20741 36.316V34.4534C9.20741 34.0746 8.90778 33.7694 8.53583 33.7694Z" fill="#21A068"/>
<path d="M11.9042 32.191H10.0754C9.70344 32.191 9.40381 32.4962 9.40381 32.875C9.40381 33.2538 9.70344 33.559 10.0754 33.559H11.9042C12.2761 33.559 12.5758 33.2538 12.5758 32.875C12.5758 32.4962 12.2761 32.191 11.9042 32.191Z" fill="#21A068"/>
<path d="M6.96524 32.191H5.13644C4.76448 32.191 4.46484 32.4962 4.46484 32.875C4.46484 33.2538 4.76448 33.559 5.13644 33.559H6.96524C7.3372 33.559 7.63683 33.2538 7.63683 32.875C7.63683 32.4962 7.3372 32.191 6.96524 32.191Z" fill="#21A068"/>
<path d="M18.0044 0.00026421C17.6324 -0.0102589 17.3225 0.294912 17.3121 0.673745C17.3121 0.684268 17.3121 0.694791 17.3121 0.705314V2.56791C17.3121 2.94674 17.6118 3.25191 17.9837 3.25191C18.3557 3.25191 18.6553 2.94674 18.6553 2.56791V0.694791C18.6656 0.315958 18.366 0.0107873 18.0044 0.00026421Z" fill="#21A068"/>
<path d="M18.0041 5.0093C17.6322 5.0093 17.3325 5.31447 17.3325 5.6933V7.5559C17.3325 7.93474 17.6322 8.23991 18.0041 8.23991C18.3761 8.23991 18.6757 7.93474 18.6757 7.5559V5.6933C18.6757 5.31447 18.3761 5.0093 18.0041 5.0093Z" fill="#21A068"/>
<path d="M21.3417 3.43075H19.5129C19.1409 3.43075 18.8413 3.73592 18.8413 4.11475C18.8413 4.49358 19.1409 4.79875 19.5129 4.79875H21.3417C21.7136 4.79875 22.0132 4.49358 22.0132 4.11475C22.0132 3.73592 21.7136 3.43075 21.3417 3.43075Z" fill="#21A068"/>
<path d="M16.4442 3.43075H14.6154C14.2435 3.43075 13.9438 3.73592 13.9438 4.11475C13.9438 4.49358 14.2435 4.79875 14.6154 4.79875H16.4442C16.8162 4.79875 17.1158 4.49358 17.1158 4.11475C17.1158 3.73592 16.8162 3.43075 16.4442 3.43075Z" fill="#21A068"/>
<path d="M16.2952 11.1132L14.2391 10.6922C12.4723 10.3344 11.0981 8.93487 10.7468 7.13542L10.3335 5.04132C10.1579 4.1679 9.33131 3.59965 8.47374 3.77854C7.84347 3.90482 7.35786 4.40993 7.23387 5.04132L6.82059 7.13542C6.46929 8.93487 5.09511 10.3344 3.3283 10.6922L1.27219 11.1132C0.414621 11.2921 -0.143318 12.1339 0.0323295 13.0073C0.156316 13.6492 0.652261 14.1438 1.27219 14.2701L3.3283 14.691C5.08478 15.0488 6.46929 16.4484 6.82059 18.2373L7.23387 20.3314C7.40952 21.2048 8.2361 21.7731 9.09367 21.5942C9.72394 21.4679 10.2095 20.9628 10.3335 20.3314L10.7468 18.2373C11.0981 16.4484 12.4826 15.0488 14.2391 14.691L16.2952 14.2701C17.1528 14.0912 17.7107 13.2494 17.5351 12.3759C17.4111 11.734 16.9151 11.2394 16.2952 11.1132ZM16.0266 12.9231L13.9705 13.3441C11.6767 13.8176 9.88925 15.6381 9.4243 17.9742L9.01101 20.0683C8.98002 20.1946 8.85603 20.2788 8.73204 20.2472C8.63905 20.2262 8.57706 20.1525 8.55639 20.0683L8.14311 17.9742C7.67816 15.6381 5.89069 13.8176 3.59694 13.3441L1.54083 12.9231C1.41685 12.8916 1.33419 12.7653 1.36519 12.639C1.38585 12.5443 1.45818 12.4812 1.54083 12.4601L3.59694 12.0392C5.89069 11.5657 7.67816 9.74515 8.14311 7.40902L8.55639 5.31492C8.58739 5.18864 8.71138 5.10445 8.83537 5.13602C8.92836 5.15707 8.99035 5.23073 9.01101 5.31492L9.4243 7.40902C9.88925 9.74515 11.6767 11.5657 13.9705 12.0392L16.0266 12.4601C16.1506 12.4917 16.2332 12.618 16.2022 12.7442C16.1816 12.8284 16.1092 12.9021 16.0266 12.9231Z" fill="#21A068"/>
</svg>
